<svg width="230" height="81" viewBox="0 0 230 81" fill="none" xmlns="http://www.w3.org/2000/svg">
	<rect x="1" y="-1" width="228" height="79" rx="13" transform="matrix(1 0 0 -1 0 79)" fill="black" stroke="white" stroke-width="2"/>
	<path d="M53.7394 60.7114C53.1707 60.4125 49.8468 58.5864 34.277 50.0189C29.9442 47.6348 25.7726 45.3422 25.0067 44.9242C23.2673 43.9749 23 43.7413 23 43.1704C23 42.8714 23.6942 40.9563 25.3213 36.7672C26.598 33.4802 27.727 30.5996 27.8303 30.366C28.0654 29.8341 28.4443 29.3823 28.8144 29.1925C29.1608 29.0149 37.8181 25.8804 38.2594 25.7729C38.7364 25.6565 39.1479 25.8806 39.3905 26.3887C39.507 26.6326 39.9909 27.8913 40.4658 29.1859C40.9408 30.4805 41.6479 32.3946 42.0372 33.4396C42.929 35.8338 42.9623 36.1729 42.3413 36.5366C42.1767 36.6329 41.1061 37.0495 39.9621 37.4621C38.8182 37.8748 37.7266 38.3022 37.5364 38.4119C37.0977 38.6649 37.0317 39.0557 37.3746 39.3698C37.5108 39.4946 39.7104 40.7385 42.2626 42.1341C49.396 46.0347 49 45.8582 49.4758 45.3492C49.709 45.0997 53.9708 34.3526 54.2154 33.3974C54.3199 32.9893 54.3084 32.9326 54.0856 32.7536C53.7811 32.5092 53.8251 32.4987 51.0238 33.4806C48.2487 34.4533 47.9844 34.4739 47.6127 33.7464C47.4174 33.3645 44.4282 25.2252 44.2427 24.5704C44.1226 24.1468 44.2694 23.7443 44.6291 23.5106C44.7786 23.4135 46.9539 22.5861 49.463 21.672C53.1866 20.3155 54.1343 20.0083 54.6187 20.0006C55.2436 19.9907 55.3256 20.0333 66.7826 26.3182C67.5765 26.7537 68 27.2121 68 27.6357C68 27.8039 65.1592 35.2747 61.6871 44.2375C56.7904 56.878 55.3124 60.5874 55.0984 60.7742C54.7346 61.0916 54.4366 61.0778 53.7394 60.7114Z" fill="url(#paint0_linear_23_12)" stroke="url(#paint1_linear_23_12)" stroke-width="0.525354"/>
	<path d="M94.017 30.9999H91.3806L95.3977 19.3635H98.5681L102.579 30.9999H99.9431L97.0283 22.0226H96.9374L94.017 30.9999ZM93.8522 26.426H100.079V28.3465H93.8522V26.426Z" fill="white"/>
	<path d="M106.744 31.1419C106.081 31.1419 105.481 30.9715 104.943 30.6306C104.409 30.2859 103.985 29.7802 103.67 29.1135C103.36 28.4431 103.204 27.6211 103.204 26.6476C103.204 25.6476 103.365 24.8162 103.687 24.1533C104.009 23.4866 104.437 22.9885 104.972 22.659C105.509 22.3256 106.098 22.159 106.739 22.159C107.227 22.159 107.634 22.2423 107.96 22.409C108.29 22.5719 108.555 22.7764 108.756 23.0226C108.96 23.265 109.115 23.5037 109.222 23.7385H109.295V19.3635H111.71V30.9999H109.324V29.6022H109.222C109.108 29.8446 108.947 30.0851 108.739 30.3238C108.534 30.5586 108.267 30.7537 107.937 30.909C107.612 31.0643 107.214 31.1419 106.744 31.1419ZM107.511 29.2158C107.901 29.2158 108.231 29.1097 108.5 28.8976C108.773 28.6817 108.981 28.3806 109.125 27.9942C109.273 27.6078 109.347 27.1552 109.347 26.6363C109.347 26.1173 109.275 25.6666 109.131 25.284C108.987 24.9014 108.778 24.6059 108.506 24.3976C108.233 24.1893 107.901 24.0851 107.511 24.0851C107.114 24.0851 106.778 24.1931 106.506 24.409C106.233 24.6249 106.026 24.9241 105.886 25.3067C105.746 25.6893 105.676 26.1325 105.676 26.6363C105.676 27.1438 105.746 27.5927 105.886 27.9828C106.03 28.3692 106.237 28.6722 106.506 28.8919C106.778 29.1078 107.114 29.2158 107.511 29.2158Z" fill="white"/>
	<path d="M116.916 31.1419C116.253 31.1419 115.653 30.9715 115.115 30.6306C114.581 30.2859 114.157 29.7802 113.842 29.1135C113.532 28.4431 113.376 27.6211 113.376 26.6476C113.376 25.6476 113.537 24.8162 113.859 24.1533C114.181 23.4866 114.609 22.9885 115.143 22.659C115.681 22.3256 116.27 22.159 116.91 22.159C117.399 22.159 117.806 22.2423 118.132 22.409C118.462 22.5719 118.727 22.7764 118.927 23.0226C119.132 23.265 119.287 23.5037 119.393 23.7385H119.467V19.3635H121.882V30.9999H119.496V29.6022H119.393C119.28 29.8446 119.119 30.0851 118.91 30.3238C118.706 30.5586 118.439 30.7537 118.109 30.909C117.784 31.0643 117.386 31.1419 116.916 31.1419ZM117.683 29.2158C118.073 29.2158 118.403 29.1097 118.672 28.8976C118.945 28.6817 119.153 28.3806 119.297 27.9942C119.445 27.6078 119.518 27.1552 119.518 26.6363C119.518 26.1173 119.446 25.6666 119.302 25.284C119.159 24.9014 118.95 24.6059 118.677 24.3976C118.405 24.1893 118.073 24.0851 117.683 24.0851C117.285 24.0851 116.95 24.1931 116.677 24.409C116.405 24.6249 116.198 24.9241 116.058 25.3067C115.918 25.6893 115.848 26.1325 115.848 26.6363C115.848 27.1438 115.918 27.5927 116.058 27.9828C116.202 28.3692 116.409 28.6722 116.677 28.8919C116.95 29.1078 117.285 29.2158 117.683 29.2158Z" fill="white"/>
	<path d="M132.217 22.2726V24.0908H126.962V22.2726H132.217ZM128.155 20.1817H130.575V28.3181C130.575 28.5416 130.609 28.7158 130.677 28.8408C130.746 28.962 130.84 29.0472 130.962 29.0965C131.087 29.1457 131.231 29.1703 131.393 29.1703C131.507 29.1703 131.621 29.1609 131.734 29.1419C131.848 29.1192 131.935 29.1022 131.996 29.0908L132.376 30.8919C132.255 30.9298 132.085 30.9734 131.865 31.0226C131.645 31.0756 131.378 31.1078 131.064 31.1192C130.481 31.1419 129.969 31.0643 129.53 30.8863C129.094 30.7082 128.755 30.4317 128.513 30.0567C128.27 29.6817 128.151 29.2082 128.155 28.6363V20.1817Z" fill="white"/>
	<path d="M137.643 31.1703C136.761 31.1703 135.998 30.9828 135.354 30.6078C134.713 30.2291 134.219 29.7025 133.871 29.0283C133.522 28.3503 133.348 27.5643 133.348 26.6703C133.348 25.7688 133.522 24.9809 133.871 24.3067C134.219 23.6287 134.713 23.1022 135.354 22.7272C135.998 22.3484 136.761 22.159 137.643 22.159C138.526 22.159 139.287 22.3484 139.927 22.7272C140.571 23.1022 141.068 23.6287 141.416 24.3067C141.765 24.9809 141.939 25.7688 141.939 26.6703C141.939 27.5643 141.765 28.3503 141.416 29.0283C141.068 29.7025 140.571 30.2291 139.927 30.6078C139.287 30.9828 138.526 31.1703 137.643 31.1703ZM137.655 29.2953C138.056 29.2953 138.392 29.1817 138.66 28.9544C138.929 28.7234 139.132 28.409 139.268 28.0113C139.409 27.6135 139.479 27.1609 139.479 26.6533C139.479 26.1457 139.409 25.6931 139.268 25.2953C139.132 24.8976 138.929 24.5832 138.66 24.3522C138.392 24.1211 138.056 24.0056 137.655 24.0056C137.249 24.0056 136.909 24.1211 136.632 24.3522C136.359 24.5832 136.153 24.8976 136.013 25.2953C135.876 25.6931 135.808 26.1457 135.808 26.6533C135.808 27.1609 135.876 27.6135 136.013 28.0113C136.153 28.409 136.359 28.7234 136.632 28.9544C136.909 29.1817 137.249 29.2953 137.655 29.2953Z" fill="white"/>
	<path d="M107.825 50.6363C107.825 52.4604 107.479 54.0122 106.788 55.2918C106.102 56.5714 105.165 57.5488 103.978 58.224C102.797 58.8937 101.468 59.2286 99.9925 59.2286C98.506 59.2286 97.1719 58.891 95.9903 58.2158C94.8088 57.5406 93.8749 56.5632 93.1889 55.2836C92.5028 54.004 92.1597 52.4549 92.1597 50.6363C92.1597 48.8122 92.5028 47.2603 93.1889 45.9807C93.8749 44.7011 94.8088 43.7265 95.9903 43.0567C97.1719 42.3815 98.506 42.0439 99.9925 42.0439C101.468 42.0439 102.797 42.3815 103.978 43.0567C105.165 43.7265 106.102 44.7011 106.788 45.9807C107.479 47.2603 107.825 48.8122 107.825 50.6363ZM104.24 50.6363C104.24 49.4547 104.063 48.4582 103.709 47.6469C103.36 46.8356 102.867 46.2203 102.23 45.801C101.593 45.3818 100.847 45.1721 99.9925 45.1721C99.1376 45.1721 98.3916 45.3818 97.7546 45.801C97.1175 46.2203 96.622 46.8356 96.268 47.6469C95.9196 48.4582 95.7453 49.4547 95.7453 50.6363C95.7453 51.8178 95.9196 52.8143 96.268 53.6256C96.622 54.4369 97.1175 55.0522 97.7546 55.4715C98.3916 55.8908 99.1376 56.1004 99.9925 56.1004C100.847 56.1004 101.593 55.8908 102.23 55.4715C102.867 55.0522 103.36 54.4369 103.709 53.6256C104.063 52.8143 104.24 51.8178 104.24 50.6363Z" fill="white"/>
	<path d="M110.445 58.9999V42.2726H113.924V48.5617H114.031C114.183 48.2241 114.404 47.881 114.692 47.5326C114.986 47.1786 115.367 46.8846 115.836 46.6505C116.309 46.4109 116.897 46.2911 117.6 46.2911C118.515 46.2911 119.359 46.5307 120.132 47.0098C120.905 47.4836 121.523 48.1996 121.986 49.1579C122.449 50.1108 122.68 51.306 122.68 52.7435C122.68 54.1429 122.454 55.3245 122.002 56.2882C121.556 57.2466 120.946 57.9735 120.173 58.469C119.405 58.9591 118.545 59.2041 117.592 59.2041C116.916 59.2041 116.342 59.0925 115.868 58.8692C115.4 58.646 115.016 58.3655 114.717 58.0279C114.417 57.6849 114.188 57.3391 114.031 56.9907H113.875V58.9999H110.445ZM113.851 52.7272C113.851 53.4731 113.954 54.1238 114.161 54.6792C114.368 55.2346 114.668 55.6675 115.06 55.9779C115.452 56.2828 115.928 56.4353 116.489 56.4353C117.055 56.4353 117.534 56.2801 117.927 55.9697C118.319 55.6539 118.615 55.2183 118.817 54.6629C119.024 54.102 119.127 53.4568 119.127 52.7272C119.127 52.003 119.026 51.3659 118.825 50.8159C118.623 50.266 118.327 49.8358 117.935 49.5255C117.543 49.2151 117.061 49.0599 116.489 49.0599C115.923 49.0599 115.444 49.2096 115.052 49.5091C114.665 49.8086 114.368 50.2333 114.161 50.7833C113.954 51.3332 113.851 51.9812 113.851 52.7272Z" fill="white"/>
	<path d="M131.675 46.4544V49.0681H124.12V46.4544H131.675ZM125.835 43.4488H129.314V55.1448C129.314 55.466 129.363 55.7165 129.461 55.8962C129.559 56.0704 129.695 56.193 129.87 56.2637C130.049 56.3345 130.256 56.3699 130.49 56.3699C130.654 56.3699 130.817 56.3563 130.98 56.3291C131.144 56.2964 131.269 56.2719 131.356 56.2556L131.903 58.8447C131.729 58.8992 131.484 58.9618 131.168 59.0326C130.852 59.1088 130.469 59.1551 130.017 59.1714C129.178 59.2041 128.443 59.0925 127.811 58.8365C127.185 58.5806 126.698 58.1831 126.349 57.6441C126.001 57.105 125.829 56.4244 125.835 55.6022V43.4488Z" fill="white"/>
	<path d="M137.519 59.2368C136.718 59.2368 136.005 59.0979 135.379 58.8202C134.752 58.5371 134.257 58.1205 133.892 57.5706C133.533 57.0152 133.353 56.3236 133.353 55.496C133.353 54.799 133.481 54.2137 133.737 53.7399C133.993 53.2662 134.341 52.8851 134.782 52.5965C135.223 52.3079 135.724 52.0901 136.285 51.9431C136.852 51.7961 137.445 51.6926 138.066 51.6327C138.795 51.5565 139.384 51.4857 139.83 51.4203C140.277 51.3496 140.6 51.2461 140.802 51.11C141.003 50.9738 141.104 50.7724 141.104 50.5056V50.4566C141.104 49.9393 140.941 49.5391 140.614 49.2559C140.293 48.9728 139.835 48.8312 139.242 48.8312C138.616 48.8312 138.118 48.9701 137.747 49.2478C137.377 49.52 137.132 49.8631 137.012 50.2769L133.794 50.0155C133.957 49.2532 134.279 48.5943 134.758 48.039C135.237 47.4781 135.855 47.0479 136.612 46.7485C137.374 46.4435 138.256 46.2911 139.258 46.2911C139.955 46.2911 140.622 46.3728 141.259 46.5361C141.902 46.6995 142.471 46.9527 142.966 47.2957C143.467 47.6387 143.862 48.0798 144.151 48.6189C144.439 49.1525 144.584 49.7923 144.584 50.5382V58.9999H141.284V57.2602H141.186C140.984 57.6522 140.715 57.998 140.377 58.2975C140.04 58.5915 139.634 58.8229 139.16 58.9917C138.687 59.1551 138.139 59.2368 137.519 59.2368ZM138.515 56.8355C139.027 56.8355 139.479 56.7347 139.871 56.5333C140.263 56.3264 140.571 56.0487 140.794 55.7002C141.017 55.3517 141.129 54.9569 141.129 54.5159V53.1845C141.02 53.2553 140.87 53.3207 140.679 53.3806C140.494 53.435 140.285 53.4867 140.051 53.5358C139.816 53.5793 139.582 53.6202 139.348 53.6583C139.114 53.6909 138.902 53.7209 138.711 53.7481C138.303 53.808 137.946 53.9033 137.641 54.034C137.336 54.1647 137.099 54.3416 136.931 54.5649C136.762 54.7827 136.677 55.0549 136.677 55.3816C136.677 55.8554 136.849 56.2175 137.192 56.4679C137.54 56.713 137.981 56.8355 138.515 56.8355Z" fill="white"/>
	<path d="M147.283 58.9999V46.4544H150.762V58.9999H147.283ZM149.031 44.8372C148.514 44.8372 148.07 44.6657 147.7 44.3227C147.335 43.9742 147.152 43.5577 147.152 43.073C147.152 42.5939 147.335 42.1828 147.7 41.8397C148.07 41.4912 148.514 41.317 149.031 41.317C149.548 41.317 149.989 41.4912 150.354 41.8397C150.724 42.1828 150.909 42.5939 150.909 43.073C150.909 43.5577 150.724 43.9742 150.354 44.3227C149.989 44.6657 149.548 44.8372 149.031 44.8372Z" fill="white"/>
	<path d="M157.029 51.747V58.9999H153.55V46.4544H156.866V48.6679H157.013C157.29 47.9382 157.756 47.361 158.409 46.9363C159.063 46.5062 159.855 46.2911 160.786 46.2911C161.657 46.2911 162.417 46.4817 163.065 46.8628C163.713 47.244 164.216 47.7885 164.576 48.4963C164.935 49.1988 165.115 50.0373 165.115 51.012V58.9999H161.635V51.6327C161.641 50.8649 161.445 50.266 161.047 49.8358C160.65 49.4002 160.103 49.1824 159.406 49.1824C158.937 49.1824 158.524 49.2832 158.164 49.4846C157.81 49.6861 157.533 49.9801 157.331 50.3667C157.135 50.7479 157.034 51.208 157.029 51.747Z" fill="white"/>
	<path d="M167.857 58.9999V46.4544H171.337V58.9999H167.857ZM169.605 44.8372C169.088 44.8372 168.644 44.6657 168.274 44.3227C167.909 43.9742 167.726 43.5577 167.726 43.073C167.726 42.5939 167.909 42.1828 168.274 41.8397C168.644 41.4912 169.088 41.317 169.605 41.317C170.122 41.317 170.563 41.4912 170.928 41.8397C171.298 42.1828 171.484 42.5939 171.484 43.073C171.484 43.5577 171.298 43.9742 170.928 44.3227C170.563 44.6657 170.122 44.8372 169.605 44.8372Z" fill="white"/>
	<path d="M182.169 53.6583V46.4544H185.648V58.9999H182.308V56.7211H182.177C181.894 57.4562 181.423 58.047 180.764 58.4935C180.111 58.94 179.313 59.1632 178.371 59.1632C177.532 59.1632 176.795 58.9727 176.158 58.5915C175.52 58.2104 175.022 57.6686 174.663 56.9662C174.309 56.2637 174.129 55.4225 174.124 54.4424V46.4544H177.603V53.8216C177.609 54.5622 177.807 55.1475 178.199 55.5777C178.591 56.0078 179.117 56.2229 179.776 56.2229C180.195 56.2229 180.587 56.1276 180.952 55.937C181.317 55.741 181.611 55.4524 181.834 55.0713C182.063 54.6901 182.174 54.2191 182.169 53.6583Z" fill="white"/>
	<path d="M188.431 58.9999V46.4544H191.747V48.6679H191.894C192.156 47.9328 192.591 47.3529 193.201 46.9282C193.811 46.5034 194.541 46.2911 195.39 46.2911C196.251 46.2911 196.983 46.5062 197.587 46.9363C198.192 47.361 198.595 47.9382 198.796 48.6679H198.927C199.183 47.9491 199.646 47.3747 200.315 46.9445C200.99 46.5089 201.788 46.2911 202.708 46.2911C203.879 46.2911 204.829 46.6641 205.559 47.41C206.294 48.1506 206.662 49.2015 206.662 50.5627V58.9999H203.19V51.2488C203.19 50.5519 203.005 50.0291 202.635 49.6806C202.265 49.3322 201.802 49.1579 201.246 49.1579C200.615 49.1579 200.122 49.3594 199.768 49.7623C199.414 50.1598 199.237 50.6853 199.237 51.3387V58.9999H195.864V51.1753C195.864 50.56 195.687 50.07 195.333 49.7051C194.985 49.3403 194.524 49.1579 193.953 49.1579C193.566 49.1579 193.218 49.2559 192.907 49.4519C192.602 49.6425 192.36 49.9121 192.18 50.2605C192.001 50.6036 191.911 51.0065 191.911 51.4693V58.9999H188.431Z" fill="white"/>
	<defs>
		<linearGradient id="paint0_linear_23_12" x1="27.9782" y1="30.0317" x2="54.0744" y2="60.3748" gradientUnits="userSpaceOnUse">
			<stop stop-color="#9B58DC"/>
			<stop offset="1" stop-color="#321C92"/>
		</linearGradient>
		<linearGradient id="paint1_linear_23_12" x1="27.9782" y1="30.0317" x2="54.0744" y2="60.3748" gradientUnits="userSpaceOnUse">
			<stop stop-color="#9B58DC"/>
			<stop offset="1" stop-color="#321C92"/>
		</linearGradient>
	</defs>
</svg>
